<svg xmlns="http://www.w3.org/2000/svg" data-name="Layer 1" width="709" height="516.43755" viewBox="0 0 709 516.43755" xmlns:xlink="http://www.w3.org/1999/xlink"><path d="M774.615,528.19712a2.04,2.04,0,0,0,1.47849-3.53587l-.13978-.55573.05554-.1334a5.47837,5.47837,0,0,1,10.10547.03755c1.6528,3.98071,3.7571,7.96823,4.27523,12.17716a16.207,16.207,0,0,1-.2845,5.57391,64.97745,64.97745,0,0,0,5.91074-26.98722,62.71706,62.71706,0,0,0-.389-6.99649q-.32227-2.85669-.8942-5.6727a65.73026,65.73026,0,0,0-13.03491-27.85816,17.49283,17.49283,0,0,1-7.27518-7.54808,13.34366,13.34366,0,0,1-1.2135-3.64631c.35416.04646.71415.07549,1.06832.09869.11033.00578.22644.0116.33678.01743l.04161.00186a2.0212,2.0212,0,0,0,1.66-3.29288q-.22939-.28229-.459-.56431c-.23228-.29033-.47033-.57483-.70256-.86512a1.00742,1.00742,0,0,1-.07548-.08713c-.26712-.331-.53416-.6561-.80128-.98706a5.84449,5.84449,0,0,1,1.91606-1.85213c2.67666-1.56767,6.36942-.48193,8.30291,1.93927a10.56231,10.56231,0,0,1,1.63155,8.84284,23.42223,23.42223,0,0,1-3.2399,7.2229c.14519.18582.29615.36581.44129.55163a66.15428,66.15428,0,0,1,6.90489,10.939,27.5012,27.5012,0,0,1,1.64185-12.77375c1.57154-3.79116,4.51716-6.9841,7.11112-10.26156a5.64472,5.64472,0,0,1,10.05389,2.77177l.01556.14491q-.57793.326-1.13146.69211a2.76716,2.76716,0,0,0,1.11566,5.03571l.05643.00871a27.53327,27.53327,0,0,1-.72576,4.11663,28.34844,28.34844,0,0,1-14.11488,17.767c-.22645.11611-.44712.23223-.67357.34256A67.52376,67.52376,0,0,1,797.218,509.966a64.04433,64.04433,0,0,1-.04645,10.34086l.01742-.12194a16.92336,16.92336,0,0,1,5.77721-9.77185c4.44587-3.65212,10.727-4.997,15.52334-7.93258a3.176,3.176,0,0,1,4.86442,3.08978l-.01961.12818a18.58815,18.58815,0,0,0-2.08441,1.00444q-.57793.32612-1.13145.69211a2.76718,2.76718,0,0,0,1.11565,5.03575l.05648.00867c.04063.00582.07548.01165.11606.01747a27.55689,27.55689,0,0,1-5.06878,7.93705,28.37359,28.37359,0,0,1-20.57721,9.02867h-.00583a67.505,67.505,0,0,1-4.53467,13.23816H775.02092c-.0581-.18-.11033-.36582-.16261-.54581a18.406,18.406,0,0,0,4.48244-.267c-1.20191-1.47481-2.40377-2.96123-3.60567-4.436a1.00654,1.00654,0,0,1-.07548-.08708c-.60965-.75479-1.22511-1.5038-1.83476-2.25858l-.00032-.00093a26.96013,26.96013,0,0,1,.79-6.86785Z" transform="translate(-245.5 -191.78123)" fill="#f2f2f2"/><path d="M725.60888,379.5833c0,8.91721,4.46094,17.9913,13.37815,17.9913s21.2205-6.45841,18.45261-20.29787c-1.74881-8.744-6.76751-13.83946-15.68472-13.83946A16.146,16.146,0,0,0,725.60888,379.5833Z" transform="translate(-245.5 -191.78123)" fill="#2f2e41"/><path d="M763.01519,506.987a4.96414,4.96414,0,0,1,1.06231-7.53751L760.174,482.24563l8.58,3.22828,2.3914,15.84211a4.9911,4.9911,0,0,1-8.13024,5.67094Z" transform="translate(-245.5 -191.78123)" fill="#a0616a"/><path d="M744.80316,446.00849l5.98858.60962s-1.56618,8.87138.88309,10.86964,1.462,1.98878,1.44778,3.46971a7.59375,7.59375,0,0,0,2.90976,5.45851c1.96037,1.49987,6.03742,28.212,6.03742,28.212l8.8856.08525a27.841,27.841,0,0,1,.0663-6.911c.5268-3.45077,3.18989-12.14305,2.21681-13.63346s-.46083-4.23112-.43241-7.193-4.20868.31082-4.16131-4.62562-5.38734-35.91212-4.85107-40.35018-4.85592-8.43931-4.85592-8.43931l-4.93644-.04736Z" transform="translate(-245.5 -191.78123)" fill="#e6e6e6"/><path d="M681.22849,404.34911a4.70351,4.70351,0,0,0,4.3915,5.72117l4.80413,16.00944,5.57079-6.6641-5.41614-14.18116a4.729,4.729,0,0,0-9.35028-.88535Z" transform="translate(-245.5 -191.78123)" fill="#a0616a"/><path d="M731.94827,409.56353s-11.61395-4.35456-17.91055,19.49258l-8.35858,8.65682-7.02237-12.689.92852-3.01016L694.15812,409.71l-9.305,5.34019,2.29054,8.44719-.387,4.17581,2.22355,2.59722,3.63988,13.42336,2.277,4.38552s2.87153,5.61524,7.88414,6.54017a12.9798,12.9798,0,0,0,4.05181.115,15.68479,15.68479,0,0,0,8.50539-4.24633,208.14392,208.14392,0,0,0,17.5522-17.64614Z" transform="translate(-245.5 -191.78123)" fill="#e6e6e6"/><polygon points="502.026 257.714 502.848 261.629 503.546 276.07 475.482 272.27 473.327 255.548 476.305 250.654 502.026 257.714" fill="#a0616a"/><circle cx="492.92266" cy="192.27769" r="13.28229" fill="#a0616a"/><path d="M760.67725,415.11806a17.5317,17.5317,0,0,0-12.2-10.24l-.05-.01-2.63-3.54-10.67,1.07-1.95,4-5.06,3.01h-.01l-.01.01-2.65,1.57995-8.79,10.29-.01.01a11.3359,11.3359,0,0,0-4.88995,7.58,13.3494,13.3494,0,0,0-.13,2.67c.29,5.47,3.71,10.34,4.18,10.99l1.15,6.47.23,1.33,2.07.3,29.16,4.17.81.12006.24.03.84-2.17v-.02l8.13-21.27,3.65-9.49A17.18982,17.18982,0,0,0,760.67725,415.11806Z" transform="translate(-245.5 -191.78123)" fill="#e6e6e6"/><path d="M752.32315,387.541c-.12038-.019-.24076-.04439-.36115-.06342-2.07184-.36745-4.14365-.72856-6.20916-1.10244l-.19011-4.68215-2.50264,4.19428c-5.70865,1.89442-11.0498.82369-16.07415-1.53958a45.38136,45.38136,0,0,1-4.8153-2.6547c-1.08084-6.59529,1.64589-11.79291,8.64851-12.45638.21748-.02061.37379-.20272.5639-.29785a.0062.0062,0,0,0,.0063-.00634c.32314-.15205.65262-.29777.9821-.4308a14.63089,14.63089,0,0,1,15.35818,2.97784A17.47927,17.47927,0,0,1,752.32315,387.541Z" transform="translate(-245.5 -191.78123)" fill="#2f2e41"/><path d="M765.40723,494.6581a61.73558,61.73558,0,0,0-2.88-11.52v-.01a57.64274,57.64274,0,0,0-4.14-9.14.0098.0098,0,0,1-.01-.01,44.76122,44.76122,0,0,0-9.13-11.76l-.39-.41h-.1l-28.16-.69h-.29l-.32-.01s-.12.35-.35,1.01a.56359.56359,0,0,1-.04.12c-.08.26-.18.56-.3.89-.07.22-.15.45-.23.7-.09.27-.19.55-.29.85-.78,2.32995-1.92,5.71-3.32,9.9-.21.64-.43,1.3-.66,1.99-5.34,16.07-13.93,42.33-21.43,67.22h26.6c2.58-7.46,5.32-18.1,5.32-18.1,1.07-1.27,1.01-4.72,1.01-4.72l8.36-8.78,6.02,31.6h25.26l.19-35.17v-.3A71.5134,71.5134,0,0,0,765.40723,494.6581Z" transform="translate(-245.5 -191.78123)" fill="#ccc"/><path d="M747.23413,368.60251v.01124a8.03236,8.03236,0,0,0,.26381,2.06005c.02809.11789.06177.24136.10107.35925v.00562a8.14859,8.14859,0,0,0,5.02382,5.23155c.174.06735.35364.12347.53327.174a7.2808,7.2808,0,0,0,1.15632.23574,7.37868,7.37868,0,0,0,1.06091.073,8.07758,8.07758,0,0,0,.83075-.0393,7.86056,7.86056,0,0,0,1.89166-.43223,2.37646,2.37646,0,0,0,.28066-.101,1.36968,1.36968,0,0,0,.13475-.05611,8.14727,8.14727,0,0,0,4.20431-11.03l-.00562-.00562a7.98418,7.98418,0,0,0-1.59979-2.24529c-1.47067-1.46505-2.11871-5.13666-4.35277-5.13666a3.05456,3.05456,0,0,0-.32.0112c-1.49873.05053-4.26916,3.28433-5.44793,4.04773a7.94538,7.94538,0,0,0-2.23406,2.1162,8.04541,8.04541,0,0,0-1.31351,2.89642A8.151,8.151,0,0,0,747.23413,368.60251Z" transform="translate(-245.5 -191.78123)" fill="#2f2e41"/><path d="M757.17874,365.76833c1.264,1.4716,3.24306,2.04362,5.02834,2.80942a21.15356,21.15356,0,0,1,12.28945,15.45407c.49358,2.754.429,5.605,1.20865,8.28982.775,2.68486,2.69406,5.319,5.44813,5.78491,1.8637.31831,3.732-.40134,5.485-1.11178q1.44624-.58123,2.89245-1.16712-1.50849-3.78512-3.01237-7.5702a38.3632,38.3632,0,0,0,5.58652,6.53686q5.18287-2.08977,10.375-4.17954c-8.51589.03229-7.06274-8.23447-8.968-16.52891-1.0472-4.5578-9.9644-7.644-11.71281-11.98038a13.26574,13.26574,0,0,0-24.06219-1.20864C755.98853,361.59343,755.9378,364.3152,757.17874,365.76833Z" transform="translate(-245.5 -191.78123)" fill="#2f2e41"/><path d="M721.00882,463.1391a12.57085,12.57085,0,0,0-8.62013,7.80816,3.99034,3.99034,0,0,0,.03609,3.42653,1.74707,1.74707,0,0,0,2.14777.81431,4.30552,4.30552,0,0,0,1.869-1.99057,25.21662,25.21662,0,0,0,1.47354-3.37984c.66815-1.75206,2.0935-4.67674.05847-6.0465-1.71154-1.152-3.97759-.7045-5.90347-.7835-2.08114-.08537-4.39416-.88236-5.13346-3.03936-.719-2.09768.96666-4.07076,2.7838-4.86848a7.23465,7.23465,0,0,1,6.75365.64333,9.79289,9.79289,0,0,1,3.92119,5.67205.69256.69256,0,0,1-1.33451.3679,8.20963,8.20963,0,0,0-3.736-5.118,5.59974,5.59974,0,0,0-5.96685.23313,2.45466,2.45466,0,0,0-1.06091,2.76636,3.32662,3.32662,0,0,0,2.38226,1.78454c2.19574.53092,4.49239-.15614,6.681.54513a4.04952,4.04952,0,0,1,2.98874,4.591,16.65138,16.65138,0,0,1-1.09943,3.62026,31.27665,31.27665,0,0,1-1.49531,3.49355c-.86892,1.64225-2.43568,3.42-4.50331,2.93839-2.35652-.54887-2.916-3.3002-2.411-5.32369a13.80377,13.80377,0,0,1,9.80092-9.48926.69257.69257,0,0,1,.36791,1.33451Z" transform="translate(-245.5 -191.78123)" fill="#ccc"/><path d="M825.04724,544.7881h-164a7.00818,7.00818,0,0,1-7-7v-223a7.00787,7.00787,0,0,1,7-7h164a7.00786,7.00786,0,0,1,7,7v223A7.00817,7.00817,0,0,1,825.04724,544.7881Zm-164-235a5.00589,5.00589,0,0,0-5,5v223a5.00589,5.00589,0,0,0,5,5h164a5.00588,5.00588,0,0,0,5-5v-223a5.00589,5.00589,0,0,0-5-5Z" transform="translate(-245.5 -191.78123)" fill="#3f3d56"/><path d="M851.10992,226.26542h-465.293a1.807,1.807,0,0,1,0-3.61318h465.293a1.807,1.807,0,0,1,0,3.61318Z" transform="translate(-245.5 -191.78123)" fill="#cacaca"/><ellipse cx="171.24122" cy="10.82345" rx="10.58751" ry="10.82345" fill="#3f3d56"/><ellipse cx="207.81624" cy="10.82345" rx="10.58751" ry="10.82345" fill="#3f3d56"/><ellipse cx="244.39126" cy="10.82345" rx="10.58751" ry="10.82345" fill="#3f3d56"/><path d="M829.08865,194.46393h-25.981a1.96761,1.96761,0,0,0,0,3.93445h25.981a1.96761,1.96761,0,0,0,0-3.93445Z" transform="translate(-245.5 -191.78123)" fill="#3f3d56"/><path d="M829.08865,201.8483h-25.981a1.96761,1.96761,0,0,0,0,3.93445h25.981a1.96761,1.96761,0,0,0,0-3.93445Z" transform="translate(-245.5 -191.78123)" fill="#3f3d56"/><path d="M829.08865,209.223h-25.981a1.96762,1.96762,0,0,0,0,3.93446h25.981a1.96762,1.96762,0,0,0,0-3.93446Z" transform="translate(-245.5 -191.78123)" fill="#3f3d56"/><path d="M941.5,440.7881h-53a13,13,0,0,1,0-26h53a13,13,0,0,1,0,26Z" transform="translate(-245.5 -191.78123)" fill="#6c63ff"/><path d="M561.47949,495.19712a2.04,2.04,0,0,1-1.47849-3.53587l.13979-.55573-.05554-.1334a5.47837,5.47837,0,0,0-10.10547.03755c-1.6528,3.98071-3.7571,7.96823-4.27523,12.17716a16.2068,16.2068,0,0,0,.2845,5.57391,64.97746,64.97746,0,0,1-5.91075-26.98722,62.71707,62.71707,0,0,1,.389-6.99649q.32228-2.85669.8942-5.6727a65.73015,65.73015,0,0,1,13.03491-27.85816,17.49275,17.49275,0,0,0,7.27517-7.54808,13.34334,13.34334,0,0,0,1.21351-3.64631c-.35416.04646-.71415.07549-1.06832.09869-.11033.00578-.22645.0116-.33678.01743l-.04161.00186a2.0212,2.0212,0,0,1-1.66-3.29288q.22939-.28229.45905-.56431c.23227-.29033.47033-.57483.70255-.86512a1.00586,1.00586,0,0,0,.07549-.08713c.26712-.331.53416-.6561.80128-.98706a5.84449,5.84449,0,0,0-1.91606-1.85213c-2.67667-1.56767-6.36942-.48193-8.30291,1.93927a10.56231,10.56231,0,0,0-1.63155,8.84284,23.42223,23.42223,0,0,0,3.2399,7.2229c-.14519.18582-.29615.36581-.4413.55163a66.15488,66.15488,0,0,0-6.90488,10.939,27.5012,27.5012,0,0,0-1.64186-12.77375c-1.57154-3.79116-4.51715-6.9841-7.11111-10.26156a5.64472,5.64472,0,0,0-10.05389,2.77177l-.01556.14491q.57794.326,1.13145.69211a2.76716,2.76716,0,0,1-1.11566,5.03571l-.05642.00871a27.532,27.532,0,0,0,.72576,4.11663,28.34842,28.34842,0,0,0,14.11487,17.767c.22645.11611.44712.23223.67357.34256a67.52429,67.52429,0,0,0-3.63469,17.10509,64.04433,64.04433,0,0,0,.04645,10.34086l-.01743-.12194a16.92329,16.92329,0,0,0-5.7772-9.77185c-4.44587-3.65212-10.727-4.997-15.52334-7.93258a3.176,3.176,0,0,0-4.86442,3.08978l.01961.12818a18.589,18.589,0,0,1,2.08441,1.00444q.57794.32612,1.13145.69211a2.76718,2.76718,0,0,1-1.11566,5.03575l-.05647.00867c-.04063.00582-.07548.01165-.11607.01747a27.55671,27.55671,0,0,0,5.06879,7.93705,28.37359,28.37359,0,0,0,20.57721,9.02867h.00583a67.50434,67.50434,0,0,0,4.53467,13.23816h16.19928c.05811-.18.11034-.36582.16262-.54581a18.40594,18.40594,0,0,1-4.48244-.267c1.2019-1.47481,2.40376-2.96123,3.60567-4.436a1.00654,1.00654,0,0,0,.07548-.08708c.60964-.75479,1.22511-1.5038,1.83475-2.25858l.00033-.00093a26.96013,26.96013,0,0,0-.79-6.86785Z" transform="translate(-245.5 -191.78123)" fill="#f2f2f2"/><g opacity="0.38"><path d="M530.7207,471.66306a5.85622,5.85622,0,0,1-.1-8.97929l-13.2383-34.60919,10.57983,2.24091,11.233,33.28969a5.888,5.888,0,0,1-8.47453,8.05788Z" transform="translate(-245.5 -191.78123)" fill="#ffb8b8"/><path d="M536.16724,433.75807l-11.88-49.44-5.11-14.38a.0347.0347,0,0,1-.01-.02,9.29733,9.29733,0,0,0-4.83-5.32,9.28,9.28,0,0,0-7.21-.34,6.08318,6.08318,0,0,0-.59.24,10.466,10.466,0,0,0-1.19.64,9.4294,9.4294,0,0,0-4.23,6.19l-.9,4.72-.38,2.01,14.03,49.04v.02l4.88,17.08,2.26,7.88v.01l2.62,9.17.06.19,6.29-.42h.01l.95-.07,7.2-.48,1.04-.07Z" transform="translate(-245.5 -191.78123)" fill="#2f2e41"/><path d="M487.9366,351.21281l26.46161,53.51451,16.74024,56.90335c-35.26789,6.87715-79.52013,21.58875-82.70544.48938,1.96276-58.82568,8.14633-77.58965,20.911-103.09191Z" transform="translate(-245.5 -191.78123)" fill="#2f2e41"/><path d="M523.31726,509.7881h-21.73l-8.81-29.77-6.2,29.39c-.02.13-.03.25-.05.38h-23.16c.75-9.2,2.12-25.2,2.77-27.47.92-3.22,0-3.22-1.84-5.06-.41-.41-.55-2.05-.51-4.34.11-7.89,2.26-23.52,2.26-23.52l2.55-4.72.88-1.64,45.42-1.6.39-.01.84,3.66,1.03,4.51,1.81,7.91,1.67,6.31.09.32v1.87a4.61393,4.61393,0,0,0-.38,2.07C520.34723,468.71809,521.78723,488.6581,523.31726,509.7881Z" transform="translate(-245.5 -191.78123)" fill="#2f2e41"/><path d="M484.83565,359.14886l3.1184-7.4609,9.65153.16945,10.064,14.23587,10.56312,44.42258s3.794,32.45064,0,34.16372-49.73507.80151-49.73507.80151c2.12711-17.52462,3.71241-35.352,5.38319-46.00184C479.40269,364.28189,482.00879,371.689,484.83565,359.14886Z" transform="translate(-245.5 -191.78123)" fill="#6c63ff"/><path d="M497.60558,351.85741s20.79036,12.01812,21.60355,18.29158,3.53578,83.0571,3.53578,83.0571l-7.35219-4.75076-2.0094-27.985c1.40136-24.86686-2.01872-43.40192-8.97275-57.29606Z" transform="translate(-245.5 -191.78123)" fill="#2f2e41"/><circle cx="247.19767" cy="142.41119" r="14.16937" fill="#ffb8b8"/><path d="M475.23887,333.351a24.64076,24.64076,0,0,0,3.37007,8.07418,5.496,5.496,0,0,0,1.83823,2.08713,2.00918,2.00918,0,0,0,2.5531-.31914l.34469-.28084a7.31285,7.31285,0,0,1-1.7872-1.551,2.49023,2.49023,0,0,1-.4787-2.22757,1.53335,1.53335,0,0,1,1.87652-1.0021c.82979.32553,1.334,1.52549,2.20206,1.3404.70212-.15321.84891-1.07868.84891-1.80632-.02551-3.80413,1.81272-9.21029,3.23606-9.04434a11.47706,11.47706,0,0,0,4.2445-.56807,11.1205,11.1205,0,0,1,4.25092-.54256c.10211.01278.20426.03195.31275.05108a9.41323,9.41323,0,0,1,.94463-2.06162,11.01369,11.01369,0,0,0,.11489,2.33607,21.84885,21.84885,0,0,0,3.53606,1.117c1.31485.18512,4.20621,4.11688,4.34026,3.71476a9.41316,9.41316,0,0,1,.94463-2.06161,11.0136,11.0136,0,0,0,.11489,2.33606c.00639.03191.00639.05747.01277.08937.63828-.84891,1.02762-1.88292.81062-1.09146,2.13821-4.83809,1.30846-8.30391-2.05526-12.3825a6.468,6.468,0,0,0-2.52115-2.02335,3.17932,3.17932,0,0,0-3.102.3064,10.43668,10.43668,0,0,0-10.35279-2.20845c-3.50412,1.21913-6.204,1.934-6.74017,5.61046a7.8007,7.8007,0,0,0-7.4742,3.63813A11.78044,11.78044,0,0,0,475.23887,333.351Z" transform="translate(-245.5 -191.78123)" fill="#2f2e41"/><path d="M435.53382,468.16694a5.8562,5.8562,0,0,1,4.2461-7.91254l5.10888-36.70079,8.18456,7.06876L446.845,465.19968a5.888,5.888,0,0,1-11.31117,2.96726Z" transform="translate(-245.5 -191.78123)" fill="#ffb8b8"/><path d="M480.62726,370.19808l-.39-3.56a9.4233,9.4233,0,0,0-5.44-7.52,9.18266,9.18266,0,0,0-3.64-.85h-.01a9.41452,9.41452,0,0,0-8.81,5.56l-6.24,13.95-15.75,48.35-5.09,26.30005,5.5.81,7.97,1.17.06.01,1.83.27,25.57-68.44.01-.02,4.78-12.79Z" transform="translate(-245.5 -191.78123)" fill="#2f2e41"/></g><path d="M576.04724,510.7881h-164a7.00818,7.00818,0,0,1-7-7v-223a7.00787,7.00787,0,0,1,7-7h164a7.00786,7.00786,0,0,1,7,7v223A7.00817,7.00817,0,0,1,576.04724,510.7881Zm-164-235a5.00589,5.00589,0,0,0-5,5v223a5.00589,5.00589,0,0,0,5,5h164a5.00588,5.00588,0,0,0,5-5v-223a5.00589,5.00589,0,0,0-5-5Z" transform="translate(-245.5 -191.78123)" fill="#e6e6e6"/><path d="M311.5,440.7881h-53a13,13,0,0,1,0-26h53a13,13,0,0,1,0,26Z" transform="translate(-245.5 -191.78123)" fill="#e6e6e6"/><path d="M337.5,491.7881h-53a13,13,0,0,1,0-26h53a13,13,0,0,1,0,26Z" transform="translate(-245.5 -191.78123)" fill="#e6e6e6"/><rect x="415.72902" y="432.77568" width="2.00021" height="102.43012" transform="translate(-318.73032 701.90445) rotate(-89.1724)" fill="#e6e6e6"/><path d="M472.23572,489.30763a5.00734,5.00734,0,0,1-4.50244-2.80859h0a4.99981,4.99981,0,1,1,4.50244,2.80859Zm-.01025-8.001a3.00065,3.00065,0,0,0-2.69434,4.31543h0a2.9979,2.9979,0,1,0,2.69434-4.31543Z" transform="translate(-245.5 -191.78123)" fill="#e6e6e6"/><rect x="393.72902" y="379.77568" width="2.00021" height="102.43012" transform="translate(-287.41808 627.67227) rotate(-89.1724)" fill="#e6e6e6"/><path d="M450.23572,436.30763a5.00741,5.00741,0,0,1-4.50244-2.8081h0a5.00183,5.00183,0,1,1,4.50244,2.8081Zm-2.70459-3.68506a2.99911,2.99911,0,1,0-.14014-2.292,3.00164,3.00164,0,0,0,.14014,2.292Z" transform="translate(-245.5 -191.78123)" fill="#e6e6e6"/><path d="M351.5,390.7881h-53a13,13,0,0,1,0-26h53a13,13,0,0,1,0,26Z" transform="translate(-245.5 -191.78123)" fill="#e6e6e6"/><rect x="433.72902" y="329.77568" width="2.00021" height="102.43012" transform="translate(-198.00106 618.39029) rotate(-89.1724)" fill="#e6e6e6"/><path d="M490.23572,386.30763a5.00741,5.00741,0,0,1-4.50244-2.8081h0a5.00183,5.00183,0,1,1,4.50244,2.8081Zm-2.70459-3.68506a2.99911,2.99911,0,1,0-.14014-2.292,3.00205,3.00205,0,0,0,.14014,2.292Z" transform="translate(-245.5 -191.78123)" fill="#e6e6e6"/><rect x="810.60378" y="372.95952" width="2.00021" height="102.42963" transform="translate(130.25101 1037.78556) rotate(-89.17239)" fill="#3f3d56"/><path d="M756.10974,428.85988a5.00883,5.00883,0,1,1,2.187-.5083A5.0049,5.0049,0,0,1,756.10974,428.85988Zm-.00683-8.0044a3.00232,3.00232,0,1,0,2.69873,1.687V422.542a3.00742,3.00742,0,0,0-2.69873-1.68653Z" transform="translate(-245.5 -191.78123)" fill="#3f3d56"/><path d="M941.5,543.7881h-53a13,13,0,0,1,0-26h53a13,13,0,0,1,0,26Z" transform="translate(-245.5 -191.78123)" fill="#6c63ff"/><rect x="810.60378" y="475.95952" width="2.00021" height="102.42963" transform="translate(27.26175 1139.29782) rotate(-89.17239)" fill="#3f3d56"/><path d="M756.10926,531.85939a5.00119,5.00119,0,1,1,4.49023-7.19336h0a5.004,5.004,0,0,1-4.49023,7.19336Zm-.00635-8.00391a3.0024,3.0024,0,1,0,2.69873,1.6875h0a3.00638,3.00638,0,0,0-2.69873-1.6875Z" transform="translate(-245.5 -191.78123)" fill="#3f3d56"/><path d="M624.47007,543.66694a5.88292,5.88292,0,0,0,.258-8.95584l9.52465-27.73207-7.02294-4.52043-11.07174,33.02051a5.87468,5.87468,0,0,0,8.312,8.18783Z" transform="translate(-245.5 -191.78123)" fill="#ffb6b6"/><path d="M632.59845,467.15031c-1.68226,7.116-4.19315,13.33193-3.853,16.31709.33659,2.977-3.30142,5.83763-2.14524,8.1908,1.15384,2.359-2.3982,2.61149-1.43775,6.408.964,3.80471,1.59012,4.61838.77643,5.24453-.81953.62381-5.1492,15.14537-5.1492,15.14537l2.53963.93072,7.41055,2.70344,17.41426-28.64239-.05272-35.15688-4.32393-.13878c-1.03816.38924-2.188.85625-3.33487,1.419C636.94005,461.26208,633.39675,463.76131,632.59845,467.15031Z" transform="translate(-245.5 -191.78123)" fill="#6c63ff"/><polygon points="451.224 498.447 460.28 498.447 464.588 463.518 451.222 463.518 451.224 498.447" fill="#ffb6b6"/><path d="M708.793,691.0438v-6.13918l-2.38069.14545-9.691.57411-2.24286.13778-1.71467,20.56087-.09185,1.10229h6.43l.2067-1.09463.93386-4.97563,2.41129,4.97563.52818,1.09463h17.04729a3.85182,3.85182,0,0,0,3.82741-3.83507C724.77622,700.22958,710.59949,692.96517,708.793,691.0438Z" transform="translate(-245.5 -191.78123)" fill="#2f2e41"/><polygon points="345.131 488.59 353.008 493.059 373.992 464.805 362.367 458.21 345.131 488.59" fill="#ffb6b6"/><path d="M600.7299,687.03269l3.02366-5.33544-2.128-1.0487-8.71885-4.279-2.02088-.99511-9.92827,14.53648-2.33476,3.414,2.64092,1.50036,2.94714,1.67641,3.99579-4.71535-.444,6.72857,13.92412,7.90744h.00766l.89564.50519a3.83365,3.83365,0,0,0,5.22055-1.44677C610.09177,702.90876,601.34994,689.60469,600.7299,687.03269Z" transform="translate(-245.5 -191.78123)" fill="#2f2e41"/><path d="M651.78347,518.76828c-12.135,8.04134-24.14795,85.29835-20.99522,84.03707l-28.60249,53.30494,14.61963,9.88414L669.6658,581.4133l17.57164,37.41681,7.25647,57.432,18.20162-1.30012c-4.72964-64.70155-16.53845-132.94168-26.32489-159.338Z" transform="translate(-245.5 -191.78123)" fill="#2f2e41"/><path d="M642.56988,524.50582l-.13207.49678c12.82871,7.13756,47.94391-1.13,47.94391-1.13L684.722,505.63576l7.6408-40.51295a11.842,11.842,0,0,0-12.72177-11.7345l-9.21907-6.82939-13.12426.4528-8.77882,9.697-5.24469,1.874-4.075,1.45266c-.8238.74205-1.72306,1.59733-2.58459,2.54061l6.44579,38.36031,2.74181,11.47036Z" transform="translate(-245.5 -191.78123)" fill="#6c63ff"/><circle cx="418.37257" cy="236.4169" r="16.83944" fill="#ffb6b6"/><path d="M641.731,422.33185c.05027.019.09424.038.14451.057a2.35719,2.35719,0,0,0,.29528.10765,8.133,8.133,0,0,0,1.99235.45783,7.97544,7.97544,0,0,0,.874.0462,8.22621,8.22621,0,0,0,1.11957-.07263,7.91785,7.91785,0,0,0,1.22062-.24843,5.80714,5.80714,0,0,0,.56015-.181,8.57784,8.57784,0,0,0,5.3089-5.50164l0-.0063a3.71023,3.71023,0,0,0,.10785-.377,8.51367,8.51367,0,0,0,.28218-2.16886l0-.01259a8.51361,8.51361,0,0,0-1.591-4.97829c-.62661-.8883-1.35043-1.03675-.94439-2.05247,1.29528-3.24013-4.00406-5.88878-7.13254-4.46409a3.06437,3.06437,0,0,0-.33958-.01345c-2.10665-.00532-2.888,3.10556-4.14385,4.85689l.03636.01185a1.61638,1.61638,0,0,1-.02055,3.05821q-1.25432.40863-2.53459.72191C634.15133,414.89725,637.37842,424.6237,641.731,422.33185Z" transform="translate(-245.5 -191.78123)" fill="#2f2e41"/><path d="M643.28064,431.24674a17.48044,17.48044,0,0,0,5.48528,9.3021c2.84923,2.30256,16.249,7.75722,17.38017,3.08766-.75659,3.26187-.30069,4.50815.91635,5.67461.20825-.28243.429-.55228.6561-.81585a10.60882,10.60882,0,0,1,2.96162-2.37588,34.10094,34.10094,0,0,1-.42362,5.88505,19.89748,19.89748,0,0,1,1.43008,1.46257c2.16707-6.45917,6.91717-14.19563,3.47807-20.077-1.36489-2.33416-.22676-2.65383.98212-2.92173,2.11042-.46769,3.27432-9.129,3.77643-11.23442.623-2.63965.8696-5.67642-.76623-7.84384s-5.77351-2.25964-6.61014.32285l-1.74222-2.36888c-2.25138-4.95482-8.22805-3.96378-13.63156-3.32344a16.79328,16.79328,0,0,0-12.607,9.3004A22.97267,22.97267,0,0,0,643.28064,431.24674Z" transform="translate(-245.5 -191.78123)" fill="#2f2e41"/><path d="M651.79914,408.61343a15.254,15.254,0,0,1-8.72562,14.377c-1.09781.49739-2.05367-1.13049-.94806-1.6314a13.42035,13.42035,0,0,0,7.78711-12.75033c-.0629-1.21334,1.82386-1.20489,1.88657.00477Z" transform="translate(-245.5 -191.78123)" fill="#6c63ff"/><path d="M727.855,417.92969a5.88291,5.88291,0,0,0-3.77127,8.12718l-19.69539,21.72276,4.66911,6.925,23.20386-25.97149a5.87468,5.87468,0,0,0-4.40631-10.80344Z" transform="translate(-245.5 -191.78123)" fill="#ffb6b6"/><path d="M671.86956,488.4027s13.96892,2.50861,18.32235-3.37177,9.11341-10.59719,9.97934-13.47129,5.33552-4.062,5.20331-6.68362,3.2348-1.45043,3.84822-5.32265.36092-4.87034,1.359-5.12286,10.70264-11.88411,10.70264-11.88411l-7.70656-7.26664-27.30137,19.44645Z" transform="translate(-245.5 -191.78123)" fill="#6c63ff"/><path d="M566.80766,700.09179a36.597,36.597,0,0,1-26.63416-16.82706c-3.77925-6.129-5.72932-13.40766-7.61524-20.44666-.54911-2.0484-1.11654-4.16659-1.71746-6.20864a11.67951,11.67951,0,0,1,3.85679-12.50611,11.48277,11.48277,0,0,1,12.8-1.321l.44126.234.77326,17.37969c1.1458-2.32824,3.66013-7.58811,5.65214-12.84022l.16706-.43985.38169.27561a58.74459,58.74459,0,0,1,10.79429,10.03054,60.54633,60.54633,0,0,1,12.81485,49.26737l-.09622.51528Z" transform="translate(-245.5 -191.78123)" fill="#f2f2f2"/><path d="M495.93817,707.02877a1.18647,1.18647,0,0,0,1.19007,1.19h290.29a1.19,1.19,0,0,0,0-2.38h-290.29A1.18651,1.18651,0,0,0,495.93817,707.02877Z" transform="translate(-245.5 -191.78123)" fill="#ccc"/></svg>